<svg width="208" height="259" viewBox="0 0 208 259" fill="none" xmlns="http://www.w3.org/2000/svg">
<path d="M181.44 97.8979C181.44 140.701 146.741 175.4 103.937 175.4C61.134 175.4 26.4349 140.701 26.4349 97.8979C26.4349 55.0945 61.134 20.3954 103.937 20.3954C146.741 20.3954 181.44 55.0945 181.44 97.8979Z" fill="white"/>
<g filter="url(#filter0_di_2176_435)">
<path fill-rule="evenodd" clip-rule="evenodd" d="M204 100C204 149.346 168.258 190.344 121.25 198.518C116.122 225.907 110.071 250.863 104.001 250.863C97.9827 250.863 92.5131 225.788 87.6882 198.676C40.2185 190.888 4 149.674 4 100C4 44.7715 48.7715 0 104 0C159.228 0 204 44.7715 204 100ZM104.282 169.648C143.029 169.648 174.44 138.237 174.44 99.4895C174.44 60.7424 143.029 29.3316 104.282 29.3316C65.5351 29.3316 34.1243 60.7424 34.1243 99.4895C34.1243 138.237 65.5351 169.648 104.282 169.648Z" fill="#CE7777"/>
</g>
<g filter="url(#filter1_di_2176_435)">
<path d="M84.1936 54.7909C76.4424 62.5421 68.6001 78.136 68.6001 78.136L84.1035 93.6394C89.9443 87.7986 95.2893 86.3294 100.634 84.8602C105.979 83.391 111.325 81.9217 117.165 76.0809C124.028 69.218 136.644 52.7268 126.954 43.0372C117.264 33.3476 95.8752 43.1093 84.1936 54.7909ZM60.7763 101.463C65.0519 105.739 72.0203 105.723 76.3158 101.427L80.2096 97.5333L64.7063 82.0299L60.8124 85.9238C56.517 90.2192 56.5008 97.1876 60.7763 101.463ZM130.632 132.38C142.313 120.698 152.075 99.3089 142.385 89.6193C132.696 79.9297 116.204 92.5451 109.342 99.4081C103.501 105.249 102.032 110.594 100.562 115.939C99.0931 121.284 97.6239 126.629 91.7831 132.47L107.286 147.973C107.286 147.973 122.88 140.131 130.632 132.38ZM83.9593 155.797C88.2348 160.073 95.2033 160.056 99.4987 155.761L103.393 151.867L87.8892 136.364L83.9953 140.258C79.6999 144.553 79.6837 151.522 83.9593 155.797Z" fill="#CE7777"/>
</g>
<defs>
<filter id="filter0_di_2176_435" x="0" y="-4" width="208" height="262.864" filterUnits="userSpaceOnUse" color-interpolation-filters="sRGB">
<feFlood flood-opacity="0" result="BackgroundImageFix"/>
<feColorMatrix in="SourceAlpha" type="matrix" values="0 0 0 0 0 0 0 0 0 0 0 0 0 0 0 0 0 0 127 0" result="hardAlpha"/>
<feOffset dy="4"/>
<feGaussianBlur stdDeviation="2"/>
<feComposite in2="hardAlpha" operator="out"/>
<feColorMatrix type="matrix" values="0 0 0 0 0 0 0 0 0 0 0 0 0 0 0 0 0 0 0.25 0"/>
<feBlend mode="normal" in2="BackgroundImageFix" result="effect1_dropShadow_2176_435"/>
<feBlend mode="normal" in="SourceGraphic" in2="effect1_dropShadow_2176_435" result="shape"/>
<feColorMatrix in="SourceAlpha" type="matrix" values="0 0 0 0 0 0 0 0 0 0 0 0 0 0 0 0 0 0 127 0" result="hardAlpha"/>
<feOffset dy="-4"/>
<feGaussianBlur stdDeviation="2"/>
<feComposite in2="hardAlpha" operator="arithmetic" k2="-1" k3="1"/>
<feColorMatrix type="matrix" values="0 0 0 0 0 0 0 0 0 0 0 0 0 0 0 0 0 0 0.25 0"/>
<feBlend mode="normal" in2="shape" result="effect2_innerShadow_2176_435"/>
</filter>
<filter id="filter1_di_2176_435" x="53.5802" y="35.0864" width="96.7557" height="131.907" filterUnits="userSpaceOnUse" color-interpolation-filters="sRGB">
<feFlood flood-opacity="0" result="BackgroundImageFix"/>
<feColorMatrix in="SourceAlpha" type="matrix" values="0 0 0 0 0 0 0 0 0 0 0 0 0 0 0 0 0 0 127 0" result="hardAlpha"/>
<feOffset dy="4"/>
<feGaussianBlur stdDeviation="2"/>
<feComposite in2="hardAlpha" operator="out"/>
<feColorMatrix type="matrix" values="0 0 0 0 0 0 0 0 0 0 0 0 0 0 0 0 0 0 0.25 0"/>
<feBlend mode="normal" in2="BackgroundImageFix" result="effect1_dropShadow_2176_435"/>
<feBlend mode="normal" in="SourceGraphic" in2="effect1_dropShadow_2176_435" result="shape"/>
<feColorMatrix in="SourceAlpha" type="matrix" values="0 0 0 0 0 0 0 0 0 0 0 0 0 0 0 0 0 0 127 0" result="hardAlpha"/>
<feOffset dy="-4"/>
<feGaussianBlur stdDeviation="2"/>
<feComposite in2="hardAlpha" operator="arithmetic" k2="-1" k3="1"/>
<feColorMatrix type="matrix" values="0 0 0 0 0 0 0 0 0 0 0 0 0 0 0 0 0 0 0.25 0"/>
<feBlend mode="normal" in2="shape" result="effect2_innerShadow_2176_435"/>
</filter>
</defs>
</svg>
