<svg width="208" height="259" viewBox="0 0 208 259" fill="none" xmlns="http://www.w3.org/2000/svg">
<circle cx="103.937" cy="97.8979" r="77.5025" fill="white"/>
<g filter="url(#filter0_di_2176_304)">
<path fill-rule="evenodd" clip-rule="evenodd" d="M204 100C204 149.346 168.258 190.344 121.25 198.518C116.122 225.907 110.071 250.863 104.001 250.863C97.9827 250.863 92.5131 225.788 87.6882 198.676C40.2185 190.888 4 149.674 4 100C4 44.7715 48.7715 0 104 0C159.228 0 204 44.7715 204 100ZM104.282 169.648C143.029 169.648 174.44 138.237 174.44 99.4895C174.44 60.7424 143.029 29.3316 104.282 29.3316C65.5351 29.3316 34.1243 60.7424 34.1243 99.4895C34.1243 138.237 65.5351 169.648 104.282 169.648Z" fill="#2B3A55"/>
</g>
<g filter="url(#filter1_di_2176_304)">
<path fill-rule="evenodd" clip-rule="evenodd" d="M104.149 83.7716C104.17 83.3899 104.18 83.0056 104.181 82.6189C104.181 83.0034 104.192 83.3855 104.212 83.7651C104.191 83.7672 104.17 83.7694 104.149 83.7716ZM61.6522 87.8781C61.2262 86.1861 61 84.4147 61 82.5904C61 70.6664 70.6664 61 82.5904 61C94.5051 61 104.166 70.651 104.181 82.5621C104.196 70.6511 113.857 61.0001 125.771 61.0001C137.695 61.0001 147.362 70.6664 147.362 82.5905C147.362 85.5638 146.761 88.3968 145.674 90.9745C141.09 106.161 125.23 127.889 105.871 135.691C84.1769 129.781 64.3123 103.174 61.6522 87.8781Z" fill="#2B3A55"/>
</g>
<defs>
<filter id="filter0_di_2176_304" x="0" y="-4" width="208" height="262.864" filterUnits="userSpaceOnUse" color-interpolation-filters="sRGB">
<feFlood flood-opacity="0" result="BackgroundImageFix"/>
<feColorMatrix in="SourceAlpha" type="matrix" values="0 0 0 0 0 0 0 0 0 0 0 0 0 0 0 0 0 0 127 0" result="hardAlpha"/>
<feOffset dy="4"/>
<feGaussianBlur stdDeviation="2"/>
<feComposite in2="hardAlpha" operator="out"/>
<feColorMatrix type="matrix" values="0 0 0 0 0 0 0 0 0 0 0 0 0 0 0 0 0 0 0.25 0"/>
<feBlend mode="normal" in2="BackgroundImageFix" result="effect1_dropShadow_2176_304"/>
<feBlend mode="normal" in="SourceGraphic" in2="effect1_dropShadow_2176_304" result="shape"/>
<feColorMatrix in="SourceAlpha" type="matrix" values="0 0 0 0 0 0 0 0 0 0 0 0 0 0 0 0 0 0 127 0" result="hardAlpha"/>
<feOffset dy="-4"/>
<feGaussianBlur stdDeviation="2"/>
<feComposite in2="hardAlpha" operator="arithmetic" k2="-1" k3="1"/>
<feColorMatrix type="matrix" values="0 0 0 0 0 0 0 0 0 0 0 0 0 0 0 0 0 0 0.25 0"/>
<feBlend mode="normal" in2="shape" result="effect2_innerShadow_2176_304"/>
</filter>
<filter id="filter1_di_2176_304" x="57" y="57" width="94.3617" height="86.6913" filterUnits="userSpaceOnUse" color-interpolation-filters="sRGB">
<feFlood flood-opacity="0" result="BackgroundImageFix"/>
<feColorMatrix in="SourceAlpha" type="matrix" values="0 0 0 0 0 0 0 0 0 0 0 0 0 0 0 0 0 0 127 0" result="hardAlpha"/>
<feOffset dy="4"/>
<feGaussianBlur stdDeviation="2"/>
<feComposite in2="hardAlpha" operator="out"/>
<feColorMatrix type="matrix" values="0 0 0 0 0 0 0 0 0 0 0 0 0 0 0 0 0 0 0.25 0"/>
<feBlend mode="normal" in2="BackgroundImageFix" result="effect1_dropShadow_2176_304"/>
<feBlend mode="normal" in="SourceGraphic" in2="effect1_dropShadow_2176_304" result="shape"/>
<feColorMatrix in="SourceAlpha" type="matrix" values="0 0 0 0 0 0 0 0 0 0 0 0 0 0 0 0 0 0 127 0" result="hardAlpha"/>
<feOffset dy="-4"/>
<feGaussianBlur stdDeviation="2"/>
<feComposite in2="hardAlpha" operator="arithmetic" k2="-1" k3="1"/>
<feColorMatrix type="matrix" values="0 0 0 0 0 0 0 0 0 0 0 0 0 0 0 0 0 0 0.25 0"/>
<feBlend mode="normal" in2="shape" result="effect2_innerShadow_2176_304"/>
</filter>
</defs>
</svg>
